# Blender 5.1.1
# www.blender.org
mtllib Car.mtl
o Cube
v -1.047558 0.048271 -0.364821
v -1.294919 -0.494361 -0.364821
v -1.047558 0.048271 0.364821
v -1.294919 -0.494361 0.364821
v -1.833490 -0.069755 -0.364821
v -1.785752 -0.447154 -0.364821
v -1.833490 -0.069755 0.364821
v -1.785752 -0.447154 0.364821
v -1.785752 -0.447154 -0.000000
v -1.540335 -0.368014 -0.364821
v -1.540335 -0.368014 0.364821
v -1.294919 -0.494361 0.000000
v -1.540335 -0.368014 -0.000000
v -1.960068 -0.737681 0.364821
v -2.276015 -0.430812 -0.000000
v -1.960068 -0.737681 -0.364821
v -2.185225 -0.724970 0.364821
v -2.276015 -0.430812 0.364821
v -1.960068 -0.737681 -0.000000
v -2.185225 -0.724970 -0.000000
v -2.355910 -0.271022 0.000000
v -2.185225 -0.724970 -0.364821
v -2.268752 -0.566996 -0.000000
v -2.355910 -0.271022 -0.364821
v -2.268752 -0.566996 0.364821
v -2.310515 -0.537944 -0.000000
v -2.355910 -0.271022 0.364821
v -2.268752 -0.566996 -0.364821
v -2.310515 -0.537944 -0.364821
v -2.359541 -0.200207 0.000000
v -2.310515 -0.537944 0.364821
v -2.345015 -0.476207 -0.364821
v -2.359541 -0.200207 -0.364821
v -2.345015 -0.476207 -0.000000
v -2.276015 -0.430812 -0.364821
v -2.359541 -0.200207 0.364821
v -2.345015 -0.476207 0.364821
v -2.326857 -0.143917 0.000000
v -2.326857 -0.143917 -0.364821
v -2.326857 -0.143917 0.364821
v -0.563831 0.474474 -0.364821
v -0.563831 0.474474 0.364821
v 0.915902 0.489535 -0.364821
v 0.915902 0.489535 0.364821
v 1.469390 -0.022535 -0.364821
v 1.469390 -0.022535 0.364821
v 2.173486 -0.037596 -0.364821
v 2.173486 -0.037596 0.364821
v 2.301504 -0.312458 -0.364821
v 2.301504 -0.312458 0.364821
v 2.275148 -0.500719 -0.364822
v 2.275148 -0.500719 0.364821
v 2.045469 -0.640032 -0.364822
v 2.045469 -0.640032 0.364821
v 1.469390 -0.741693 -0.364822
v 1.469390 -0.741693 0.364821
v 1.303720 -0.425414 -0.364821
v 1.303720 -0.425414 0.364821
v 1.062746 -0.357640 -0.364821
v 1.062746 -0.357640 0.364821
v 0.802945 -0.425414 -0.364821
v 0.802945 -0.425414 0.364821
v 0.599623 -0.786876 -0.364822
v 0.599623 -0.786876 0.364821
v -1.147441 -0.771815 -0.364822
v -1.147441 -0.771815 0.364821
vn -0.1485 0.9889 -0.0000
vn -0.0000 -0.0000 1.0000
vn -0.9921 -0.1255 -0.0000
vn -0.4577 -0.8891 -0.0000
vn 0.9099 -0.4148 -0.0000
vn -0.0000 -0.0000 -1.0000
vn 0.3069 -0.9517 -0.0000
vn -0.8575 0.5145 -0.0000
vn 0.8729 0.4878 -0.0000
vn 0.0564 0.9984 -0.0000
vn 0.5496 -0.8354 -0.0000
vn 0.8944 0.4472 -0.0000
vn 0.8840 0.4674 -0.0000
vn 0.5711 0.8209 -0.0000
vn 0.9987 0.0512 -0.0000
vn 0.8648 -0.5021 -0.0000
vn 0.1486 -0.9889 -0.0000
vn 0.6611 -0.7503 -0.0000
vn 0.0102 -0.9999 -0.0000
vn -0.6791 -0.7340 -0.0000
vn -0.0214 -0.9998 -0.0000
vn -0.9065 -0.4222 -0.0000
vn -0.9903 0.1386 -0.0000
vn -0.5186 0.8550 -0.0000
vn -0.1738 0.9848 -0.0000
vn 0.8858 0.4640 -0.0000
vn 0.2707 0.9627 -0.0000
vn -0.2524 0.9676 -0.0000
vn -0.8716 0.4903 -0.0000
vn 0.0086 1.0000 -0.0000
vn 0.8830 0.4694 -0.0000
vt 0.625000 0.500000
vt 0.875000 0.500000
vt 0.875000 0.750000
vt 0.625000 0.750000
vt 0.375000 0.750000
vt 0.625000 1.000000
vt 0.375000 1.000000
vt 0.375000 0.875000
vt 0.375000 0.000000
vt 0.625000 0.000000
vt 0.625000 0.250000
vt 0.375000 0.250000
vt 0.375000 0.125000
vt 0.250000 0.625000
vt 0.375000 0.625000
vt 0.250000 0.750000
vt 0.375000 0.500000
vt 0.375000 0.375000
vt 0.125000 0.625000
vt 0.125000 0.750000
vt 0.125000 0.500000
vt 0.250000 0.500000
vt 0.000000 0.000000
s 0
usemtl Material
f 1/1/1 5/2/1 7/3/1 3/4/1
f 4/5/2 3/4/2 7/6/2 8/7/2 11/8/2
f 8/9/3 7/10/3 5/11/3 6/12/3 9/13/3
f 13/14/4 12/15/4 4/5/4 11/16/4
f 2/17/5 1/1/5 3/4/5 4/5/5 12/15/5
f 6/12/6 5/11/6 1/1/6 2/17/6 10/18/6
f 9/19/7 13/14/7 11/16/7 8/20/7
f 6/21/7 10/22/7 13/14/7 9/19/7
f 10/22/4 2/17/4 12/15/4 13/14/4
f 9/19/8 6/21/8 16/21/8 19/19/8
f 31/20/9 26/19/9 34/19/9 37/20/9
f 8/20/8 9/19/8 19/19/8 14/20/8
f 26/19/9 29/21/9 32/21/9 34/19/9
f 14/20/10 19/19/10 20/19/10 17/20/10
f 37/20/11 34/19/11 15/19/11 18/20/11
f 19/19/10 16/21/10 22/21/10 20/19/10
f 18/20/12 15/19/12 21/19/12 27/20/12
f 17/20/13 20/19/13 23/19/13 25/20/13
f 34/19/11 32/21/11 35/21/11 15/19/11
f 20/19/13 22/21/13 28/21/13 23/19/13
f 15/19/12 35/21/12 24/21/12 21/19/12
f 23/19/14 28/21/14 29/21/14 26/19/14
f 21/19/15 24/21/15 33/21/15 30/19/15
f 25/20/14 23/19/14 26/19/14 31/20/14
f 27/20/15 21/19/15 30/19/15 36/20/15
f 30/19/16 33/21/16 39/21/16 38/19/16
f 36/20/16 30/19/16 38/19/16 40/20/16
f 7/23/17 40/23/17 38/23/17 39/23/17 5/23/17
f 8/23/6 14/23/6 17/23/6 25/23/6 31/23/6 37/23/6 18/23/6 27/23/6 36/23/6 40/23/6 7/23/6
f 5/23/2 39/23/2 33/23/2 24/23/2 35/23/2 32/23/2 29/23/2 28/23/2 22/23/2 16/23/2 6/23/2
f 42/4/19 41/1/19 43/1/19 44/4/19
f 46/4/21 45/1/21 47/1/21 48/4/21
f 48/4/22 47/1/22 49/1/22 50/4/22
f 50/4/23 49/1/23 51/1/23 52/4/23
f 52/4/24 51/1/24 53/1/24 54/4/24
f 54/4/25 53/1/25 55/1/25 56/4/25
f 56/4/26 55/1/26 57/1/26 58/4/26
f 58/4/27 57/1/27 59/1/27 60/4/27
f 60/4/28 59/1/28 61/1/28 62/4/28
f 62/4/29 61/1/29 63/1/29 64/4/29
f 64/4/30 63/1/30 65/1/30 66/4/30
f 12/23/31 4/23/31 66/23/31 65/23/31 2/23/31
f 48/4/6 50/4/6 52/4/6 54/4/6 56/4/6 46/4/6
f 46/4/6 56/4/6 58/4/6 60/4/6 62/4/6 64/4/6 44/4/6
f 4/5/6 3/4/6 42/4/6 44/4/6 60/4/6 58/4/6 62/4/6 64/4/6 66/4/6
f 45/1/2 55/1/2 53/1/2 51/1/2 49/1/2 47/1/2
f 43/1/2 63/1/2 61/1/2 59/1/2 57/1/2 55/1/2 45/1/2
f 41/23/2 1/23/2 2/23/2 65/23/2 63/23/2 43/23/2
usemtl Glass
f 3/4/18 1/1/18 41/1/18 42/4/18
f 44/4/20 43/1/20 45/1/20 46/4/20
o Cylinder
v 1.028790 -0.395930 -0.280255
v 1.028790 -0.395930 0.294857
v 1.084890 -0.401455 -0.280255
v 1.084890 -0.401455 0.294857
v 1.138833 -0.417819 -0.280255
v 1.138833 -0.417819 0.294857
v 1.188548 -0.444392 -0.280255
v 1.188548 -0.444392 0.294857
v 1.232123 -0.480153 -0.280255
v 1.232123 -0.480153 0.294857
v 1.267884 -0.523728 -0.280255
v 1.267884 -0.523728 0.294857
v 1.294458 -0.573443 -0.280255
v 1.294458 -0.573443 0.294857
v 1.310821 -0.627387 -0.280255
v 1.310821 -0.627386 0.294857
v 1.316346 -0.683486 -0.280255
v 1.316346 -0.683486 0.294857
v 1.310821 -0.739585 -0.280255
v 1.310821 -0.739585 0.294857
v 1.294458 -0.793529 -0.280255
v 1.294458 -0.793529 0.294857
v 1.267884 -0.843243 -0.280255
v 1.267884 -0.843243 0.294857
v 1.232123 -0.886819 -0.280255
v 1.232123 -0.886819 0.294857
v 1.188548 -0.922580 -0.280255
v 1.188548 -0.922580 0.294857
v 1.138833 -0.949153 -0.280255
v 1.138833 -0.949153 0.294857
v 1.084890 -0.965517 -0.280255
v 1.084890 -0.965517 0.294857
v 1.028790 -0.971042 -0.280255
v 1.028790 -0.971042 0.294857
v 0.972691 -0.965517 -0.280255
v 0.972691 -0.965517 0.294857
v 0.918748 -0.949153 -0.280255
v 0.918748 -0.949153 0.294857
v 0.869033 -0.922580 -0.280255
v 0.869033 -0.922580 0.294857
v 0.825458 -0.886819 -0.280255
v 0.825458 -0.886819 0.294857
v 0.789696 -0.843243 -0.280255
v 0.789696 -0.843243 0.294857
v 0.763123 -0.793529 -0.280255
v 0.763123 -0.793529 0.294857
v 0.746760 -0.739585 -0.280255
v 0.746760 -0.739585 0.294857
v 0.741234 -0.683486 -0.280255
v 0.741234 -0.683486 0.294857
v 0.746760 -0.627387 -0.280255
v 0.746760 -0.627386 0.294857
v 0.763123 -0.573443 -0.280255
v 0.763123 -0.573443 0.294857
v 0.789696 -0.523728 -0.280255
v 0.789696 -0.523728 0.294857
v 0.825458 -0.480153 -0.280255
v 0.825458 -0.480153 0.294857
v 0.869033 -0.444392 -0.280255
v 0.869033 -0.444392 0.294857
v 0.918748 -0.417819 -0.280255
v 0.918748 -0.417819 0.294857
v 0.972691 -0.401455 -0.280255
v 0.972691 -0.401455 0.294857
vn 0.0980 0.9952 -0.0000
vn 0.2903 0.9569 -0.0000
vn 0.4714 0.8819 -0.0000
vn 0.6344 0.7730 -0.0000
vn 0.7730 0.6344 -0.0000
vn 0.8819 0.4714 -0.0000
vn 0.9569 0.2903 -0.0000
vn 0.9952 0.0980 -0.0000
vn 0.9952 -0.0980 -0.0000
vn 0.9569 -0.2903 -0.0000
vn 0.8819 -0.4714 -0.0000
vn 0.7730 -0.6344 -0.0000
vn 0.6344 -0.7730 -0.0000
vn 0.4714 -0.8819 -0.0000
vn 0.2903 -0.9569 -0.0000
vn 0.0980 -0.9952 -0.0000
vn -0.0980 -0.9952 -0.0000
vn -0.2903 -0.9569 -0.0000
vn -0.4714 -0.8819 -0.0000
vn -0.6344 -0.7730 -0.0000
vn -0.7730 -0.6344 -0.0000
vn -0.8819 -0.4714 -0.0000
vn -0.9569 -0.2903 -0.0000
vn -0.9952 -0.0980 -0.0000
vn -0.9952 0.0980 -0.0000
vn -0.9569 0.2903 -0.0000
vn -0.8819 0.4714 -0.0000
vn -0.7730 0.6344 -0.0000
vn -0.6344 0.7730 -0.0000
vn -0.4714 0.8819 -0.0000
vn -0.0000 -0.0000 1.0000
vn -0.2903 0.9569 -0.0000
vn -0.0980 0.9952 -0.0000
vn -0.0000 -0.0000 -1.0000
vt 1.000000 0.500000
vt 1.000000 1.000000
vt 0.968750 1.000000
vt 0.968750 0.500000
vt 0.937500 1.000000
vt 0.937500 0.500000
vt 0.906250 1.000000
vt 0.906250 0.500000
vt 0.875000 1.000000
vt 0.875000 0.500000
vt 0.843750 1.000000
vt 0.843750 0.500000
vt 0.812500 1.000000
vt 0.812500 0.500000
vt 0.781250 1.000000
vt 0.781250 0.500000
vt 0.750000 1.000000
vt 0.750000 0.500000
vt 0.718750 1.000000
vt 0.718750 0.500000
vt 0.687500 1.000000
vt 0.687500 0.500000
vt 0.656250 1.000000
vt 0.656250 0.500000
vt 0.625000 1.000000
vt 0.625000 0.500000
vt 0.593750 1.000000
vt 0.593750 0.500000
vt 0.562500 1.000000
vt 0.562500 0.500000
vt 0.531250 1.000000
vt 0.531250 0.500000
vt 0.500000 1.000000
vt 0.500000 0.500000
vt 0.468750 1.000000
vt 0.468750 0.500000
vt 0.437500 1.000000
vt 0.437500 0.500000
vt 0.406250 1.000000
vt 0.406250 0.500000
vt 0.375000 1.000000
vt 0.375000 0.500000
vt 0.343750 1.000000
vt 0.343750 0.500000
vt 0.312500 1.000000
vt 0.312500 0.500000
vt 0.281250 1.000000
vt 0.281250 0.500000
vt 0.250000 1.000000
vt 0.250000 0.500000
vt 0.218750 1.000000
vt 0.218750 0.500000
vt 0.187500 1.000000
vt 0.187500 0.500000
vt 0.156250 1.000000
vt 0.156250 0.500000
vt 0.125000 1.000000
vt 0.125000 0.500000
vt 0.093750 1.000000
vt 0.093750 0.500000
vt 0.062500 1.000000
vt 0.062500 0.500000
vt 0.296822 0.485388
vt 0.250000 0.490000
vt 0.203178 0.485388
vt 0.158156 0.471731
vt 0.116663 0.449553
vt 0.080294 0.419706
vt 0.050447 0.383337
vt 0.028269 0.341844
vt 0.014612 0.296822
vt 0.010000 0.250000
vt 0.014612 0.203178
vt 0.028269 0.158156
vt 0.050447 0.116663
vt 0.080294 0.080294
vt 0.116663 0.050447
vt 0.158156 0.028269
vt 0.203178 0.014612
vt 0.250000 0.010000
vt 0.296822 0.014612
vt 0.341844 0.028269
vt 0.383337 0.050447
vt 0.419706 0.080294
vt 0.449553 0.116663
vt 0.471731 0.158156
vt 0.485388 0.203178
vt 0.490000 0.250000
vt 0.485388 0.296822
vt 0.471731 0.341844
vt 0.449553 0.383337
vt 0.419706 0.419706
vt 0.383337 0.449553
vt 0.341844 0.471731
vt 0.031250 1.000000
vt 0.031250 0.500000
vt 0.000000 1.000000
vt 0.000000 0.500000
vt 0.750000 0.490000
vt 0.796822 0.485388
vt 0.841844 0.471731
vt 0.883337 0.449553
vt 0.919706 0.419706
vt 0.949553 0.383337
vt 0.971731 0.341844
vt 0.985388 0.296822
vt 0.990000 0.250000
vt 0.985388 0.203178
vt 0.971731 0.158156
vt 0.949553 0.116663
vt 0.919706 0.080294
vt 0.883337 0.050447
vt 0.841844 0.028269
vt 0.796822 0.014612
vt 0.750000 0.010000
vt 0.703178 0.014612
vt 0.658156 0.028269
vt 0.616663 0.050447
vt 0.580294 0.080294
vt 0.550447 0.116663
vt 0.528269 0.158156
vt 0.514612 0.203178
vt 0.510000 0.250000
vt 0.514612 0.296822
vt 0.528269 0.341844
vt 0.550447 0.383337
vt 0.580294 0.419706
vt 0.616663 0.449553
vt 0.658156 0.471731
vt 0.703178 0.485388
s 0
usemtl Wheels
f 67/24/32 68/25/32 70/26/32 69/27/32
f 69/27/33 70/26/33 72/28/33 71/29/33
f 71/29/34 72/28/34 74/30/34 73/31/34
f 73/31/35 74/30/35 76/32/35 75/33/35
f 75/33/36 76/32/36 78/34/36 77/35/36
f 77/35/37 78/34/37 80/36/37 79/37/37
f 79/37/38 80/36/38 82/38/38 81/39/38
f 81/39/39 82/38/39 84/40/39 83/41/39
f 83/41/40 84/40/40 86/42/40 85/43/40
f 85/43/41 86/42/41 88/44/41 87/45/41
f 87/45/42 88/44/42 90/46/42 89/47/42
f 89/47/43 90/46/43 92/48/43 91/49/43
f 91/49/44 92/48/44 94/50/44 93/51/44
f 93/51/45 94/50/45 96/52/45 95/53/45
f 95/53/46 96/52/46 98/54/46 97/55/46
f 97/55/47 98/54/47 100/56/47 99/57/47
f 99/57/48 100/56/48 102/58/48 101/59/48
f 101/59/49 102/58/49 104/60/49 103/61/49
f 103/61/50 104/60/50 106/62/50 105/63/50
f 105/63/51 106/62/51 108/64/51 107/65/51
f 107/65/52 108/64/52 110/66/52 109/67/52
f 109/67/53 110/66/53 112/68/53 111/69/53
f 111/69/54 112/68/54 114/70/54 113/71/54
f 113/71/55 114/70/55 116/72/55 115/73/55
f 115/73/56 116/72/56 118/74/56 117/75/56
f 117/75/57 118/74/57 120/76/57 119/77/57
f 119/77/58 120/76/58 122/78/58 121/79/58
f 121/79/59 122/78/59 124/80/59 123/81/59
f 123/81/60 124/80/60 126/82/60 125/83/60
f 125/83/61 126/82/61 128/84/61 127/85/61
f 70/86/62 68/87/62 130/88/62 128/89/62 126/90/62 124/91/62 122/92/62 120/93/62 118/94/62 116/95/62 114/96/62 112/97/62 110/98/62 108/99/62 106/100/62 104/101/62 102/102/62 100/103/62 98/104/62 96/105/62 94/106/62 92/107/62 90/108/62 88/109/62 86/110/62 84/111/62 82/112/62 80/113/62 78/114/62 76/115/62 74/116/62 72/117/62
f 127/85/63 128/84/63 130/118/63 129/119/63
f 129/119/64 130/118/64 68/120/64 67/121/64
f 67/122/65 69/123/65 71/124/65 73/125/65 75/126/65 77/127/65 79/128/65 81/129/65 83/130/65 85/131/65 87/132/65 89/133/65 91/134/65 93/135/65 95/136/65 97/137/65 99/138/65 101/139/65 103/140/65 105/141/65 107/142/65 109/143/65 111/144/65 113/145/65 115/146/65 117/147/65 119/148/65 121/149/65 123/150/65 125/151/65 127/152/65 129/153/65
o Cylinder.002
v -1.579015 -0.395930 -0.280255
v -1.579015 -0.395930 0.294857
v -1.522915 -0.401455 -0.280255
v -1.522915 -0.401455 0.294857
v -1.468972 -0.417819 -0.280255
v -1.468972 -0.417819 0.294857
v -1.419257 -0.444392 -0.280255
v -1.419257 -0.444392 0.294857
v -1.375682 -0.480153 -0.280255
v -1.375682 -0.480153 0.294857
v -1.339921 -0.523728 -0.280255
v -1.339921 -0.523728 0.294857
v -1.313347 -0.573443 -0.280255
v -1.313347 -0.573443 0.294857
v -1.296984 -0.627387 -0.280255
v -1.296984 -0.627386 0.294857
v -1.291459 -0.683486 -0.280255
v -1.291459 -0.683486 0.294857
v -1.296984 -0.739585 -0.280255
v -1.296984 -0.739585 0.294857
v -1.313347 -0.793529 -0.280255
v -1.313347 -0.793529 0.294857
v -1.339921 -0.843243 -0.280255
v -1.339921 -0.843243 0.294857
v -1.375682 -0.886819 -0.280255
v -1.375682 -0.886819 0.294857
v -1.419257 -0.922580 -0.280255
v -1.419257 -0.922580 0.294857
v -1.468972 -0.949153 -0.280255
v -1.468972 -0.949153 0.294857
v -1.522915 -0.965517 -0.280255
v -1.522915 -0.965517 0.294857
v -1.579015 -0.971042 -0.280255
v -1.579015 -0.971042 0.294857
v -1.635114 -0.965517 -0.280255
v -1.635114 -0.965517 0.294857
v -1.689057 -0.949153 -0.280255
v -1.689057 -0.949153 0.294857
v -1.738772 -0.922580 -0.280255
v -1.738772 -0.922580 0.294857
v -1.782347 -0.886819 -0.280255
v -1.782347 -0.886819 0.294857
v -1.818109 -0.843243 -0.280255
v -1.818109 -0.843243 0.294857
v -1.844682 -0.793529 -0.280255
v -1.844682 -0.793529 0.294857
v -1.861045 -0.739585 -0.280255
v -1.861045 -0.739585 0.294857
v -1.866570 -0.683486 -0.280255
v -1.866570 -0.683486 0.294857
v -1.861045 -0.627387 -0.280255
v -1.861045 -0.627386 0.294857
v -1.844682 -0.573443 -0.280255
v -1.844682 -0.573443 0.294857
v -1.818109 -0.523728 -0.280255
v -1.818109 -0.523728 0.294857
v -1.782347 -0.480153 -0.280255
v -1.782347 -0.480153 0.294857
v -1.738772 -0.444392 -0.280255
v -1.738772 -0.444392 0.294857
v -1.689057 -0.417819 -0.280255
v -1.689057 -0.417819 0.294857
v -1.635114 -0.401455 -0.280255
v -1.635114 -0.401455 0.294857
vn 0.0980 0.9952 -0.0000
vn 0.2903 0.9569 -0.0000
vn 0.4714 0.8819 -0.0000
vn 0.6344 0.7730 -0.0000
vn 0.7730 0.6344 -0.0000
vn 0.8819 0.4714 -0.0000
vn 0.9569 0.2903 -0.0000
vn 0.9952 0.0980 -0.0000
vn 0.9952 -0.0980 -0.0000
vn 0.9569 -0.2903 -0.0000
vn 0.8819 -0.4714 -0.0000
vn 0.7730 -0.6344 -0.0000
vn 0.6344 -0.7730 -0.0000
vn 0.4714 -0.8819 -0.0000
vn 0.2903 -0.9569 -0.0000
vn 0.0980 -0.9952 -0.0000
vn -0.0980 -0.9952 -0.0000
vn -0.2903 -0.9569 -0.0000
vn -0.4714 -0.8819 -0.0000
vn -0.6344 -0.7730 -0.0000
vn -0.7730 -0.6344 -0.0000
vn -0.8819 -0.4714 -0.0000
vn -0.9569 -0.2903 -0.0000
vn -0.9952 -0.0980 -0.0000
vn -0.9952 0.0980 -0.0000
vn -0.9569 0.2903 -0.0000
vn -0.8819 0.4714 -0.0000
vn -0.7730 0.6344 -0.0000
vn -0.6344 0.7730 -0.0000
vn -0.4714 0.8819 -0.0000
vn -0.0000 -0.0000 1.0000
vn -0.2903 0.9569 -0.0000
vn -0.0980 0.9952 -0.0000
vn -0.0000 -0.0000 -1.0000
vt 1.000000 0.500000
vt 1.000000 1.000000
vt 0.968750 1.000000
vt 0.968750 0.500000
vt 0.937500 1.000000
vt 0.937500 0.500000
vt 0.906250 1.000000
vt 0.906250 0.500000
vt 0.875000 1.000000
vt 0.875000 0.500000
vt 0.843750 1.000000
vt 0.843750 0.500000
vt 0.812500 1.000000
vt 0.812500 0.500000
vt 0.781250 1.000000
vt 0.781250 0.500000
vt 0.750000 1.000000
vt 0.750000 0.500000
vt 0.718750 1.000000
vt 0.718750 0.500000
vt 0.687500 1.000000
vt 0.687500 0.500000
vt 0.656250 1.000000
vt 0.656250 0.500000
vt 0.625000 1.000000
vt 0.625000 0.500000
vt 0.593750 1.000000
vt 0.593750 0.500000
vt 0.562500 1.000000
vt 0.562500 0.500000
vt 0.531250 1.000000
vt 0.531250 0.500000
vt 0.500000 1.000000
vt 0.500000 0.500000
vt 0.468750 1.000000
vt 0.468750 0.500000
vt 0.437500 1.000000
vt 0.437500 0.500000
vt 0.406250 1.000000
vt 0.406250 0.500000
vt 0.375000 1.000000
vt 0.375000 0.500000
vt 0.343750 1.000000
vt 0.343750 0.500000
vt 0.312500 1.000000
vt 0.312500 0.500000
vt 0.281250 1.000000
vt 0.281250 0.500000
vt 0.250000 1.000000
vt 0.250000 0.500000
vt 0.218750 1.000000
vt 0.218750 0.500000
vt 0.187500 1.000000
vt 0.187500 0.500000
vt 0.156250 1.000000
vt 0.156250 0.500000
vt 0.125000 1.000000
vt 0.125000 0.500000
vt 0.093750 1.000000
vt 0.093750 0.500000
vt 0.062500 1.000000
vt 0.062500 0.500000
vt 0.296822 0.485388
vt 0.250000 0.490000
vt 0.203178 0.485388
vt 0.158156 0.471731
vt 0.116663 0.449553
vt 0.080294 0.419706
vt 0.050447 0.383337
vt 0.028269 0.341844
vt 0.014612 0.296822
vt 0.010000 0.250000
vt 0.014612 0.203178
vt 0.028269 0.158156
vt 0.050447 0.116663
vt 0.080294 0.080294
vt 0.116663 0.050447
vt 0.158156 0.028269
vt 0.203178 0.014612
vt 0.250000 0.010000
vt 0.296822 0.014612
vt 0.341844 0.028269
vt 0.383337 0.050447
vt 0.419706 0.080294
vt 0.449553 0.116663
vt 0.471731 0.158156
vt 0.485388 0.203178
vt 0.490000 0.250000
vt 0.485388 0.296822
vt 0.471731 0.341844
vt 0.449553 0.383337
vt 0.419706 0.419706
vt 0.383337 0.449553
vt 0.341844 0.471731
vt 0.031250 1.000000
vt 0.031250 0.500000
vt 0.000000 1.000000
vt 0.000000 0.500000
vt 0.750000 0.490000
vt 0.796822 0.485388
vt 0.841844 0.471731
vt 0.883337 0.449553
vt 0.919706 0.419706
vt 0.949553 0.383337
vt 0.971731 0.341844
vt 0.985388 0.296822
vt 0.990000 0.250000
vt 0.985388 0.203178
vt 0.971731 0.158156
vt 0.949553 0.116663
vt 0.919706 0.080294
vt 0.883337 0.050447
vt 0.841844 0.028269
vt 0.796822 0.014612
vt 0.750000 0.010000
vt 0.703178 0.014612
vt 0.658156 0.028269
vt 0.616663 0.050447
vt 0.580294 0.080294
vt 0.550447 0.116663
vt 0.528269 0.158156
vt 0.514612 0.203178
vt 0.510000 0.250000
vt 0.514612 0.296822
vt 0.528269 0.341844
vt 0.550447 0.383337
vt 0.580294 0.419706
vt 0.616663 0.449553
vt 0.658156 0.471731
vt 0.703178 0.485388
s 0
usemtl Wheels
f 131/154/66 132/155/66 134/156/66 133/157/66
f 133/157/67 134/156/67 136/158/67 135/159/67
f 135/159/68 136/158/68 138/160/68 137/161/68
f 137/161/69 138/160/69 140/162/69 139/163/69
f 139/163/70 140/162/70 142/164/70 141/165/70
f 141/165/71 142/164/71 144/166/71 143/167/71
f 143/167/72 144/166/72 146/168/72 145/169/72
f 145/169/73 146/168/73 148/170/73 147/171/73
f 147/171/74 148/170/74 150/172/74 149/173/74
f 149/173/75 150/172/75 152/174/75 151/175/75
f 151/175/76 152/174/76 154/176/76 153/177/76
f 153/177/77 154/176/77 156/178/77 155/179/77
f 155/179/78 156/178/78 158/180/78 157/181/78
f 157/181/79 158/180/79 160/182/79 159/183/79
f 159/183/80 160/182/80 162/184/80 161/185/80
f 161/185/81 162/184/81 164/186/81 163/187/81
f 163/187/82 164/186/82 166/188/82 165/189/82
f 165/189/83 166/188/83 168/190/83 167/191/83
f 167/191/84 168/190/84 170/192/84 169/193/84
f 169/193/85 170/192/85 172/194/85 171/195/85
f 171/195/86 172/194/86 174/196/86 173/197/86
f 173/197/87 174/196/87 176/198/87 175/199/87
f 175/199/88 176/198/88 178/200/88 177/201/88
f 177/201/89 178/200/89 180/202/89 179/203/89
f 179/203/90 180/202/90 182/204/90 181/205/90
f 181/205/91 182/204/91 184/206/91 183/207/91
f 183/207/92 184/206/92 186/208/92 185/209/92
f 185/209/93 186/208/93 188/210/93 187/211/93
f 187/211/94 188/210/94 190/212/94 189/213/94
f 189/213/95 190/212/95 192/214/95 191/215/95
f 134/216/96 132/217/96 194/218/96 192/219/96 190/220/96 188/221/96 186/222/96 184/223/96 182/224/96 180/225/96 178/226/96 176/227/96 174/228/96 172/229/96 170/230/96 168/231/96 166/232/96 164/233/96 162/234/96 160/235/96 158/236/96 156/237/96 154/238/96 152/239/96 150/240/96 148/241/96 146/242/96 144/243/96 142/244/96 140/245/96 138/246/96 136/247/96
f 191/215/97 192/214/97 194/248/97 193/249/97
f 193/249/98 194/248/98 132/250/98 131/251/98
f 131/252/99 133/253/99 135/254/99 137/255/99 139/256/99 141/257/99 143/258/99 145/259/99 147/260/99 149/261/99 151/262/99 153/263/99 155/264/99 157/265/99 159/266/99 161/267/99 163/268/99 165/269/99 167/270/99 169/271/99 171/272/99 173/273/99 175/274/99 177/275/99 179/276/99 181/277/99 183/278/99 185/279/99 187/280/99 189/281/99 191/282/99 193/283/99
o Cylinder.001
v 1.028790 -0.584176 -0.420451
v 1.028790 -0.584176 0.435052
v 1.048165 -0.586084 -0.420451
v 1.048165 -0.586084 0.435052
v 1.066795 -0.591735 -0.420451
v 1.066795 -0.591735 0.435052
v 1.083964 -0.600913 -0.420451
v 1.083964 -0.600913 0.435052
v 1.099013 -0.613263 -0.420451
v 1.099013 -0.613263 0.435052
v 1.111364 -0.628312 -0.420451
v 1.111364 -0.628312 0.435052
v 1.120541 -0.645482 -0.420451
v 1.120541 -0.645482 0.435052
v 1.126192 -0.664111 -0.420451
v 1.126192 -0.664111 0.435052
v 1.128101 -0.683486 -0.420451
v 1.128101 -0.683486 0.435052
v 1.126192 -0.702860 -0.420451
v 1.126192 -0.702860 0.435052
v 1.120541 -0.721490 -0.420451
v 1.120541 -0.721490 0.435052
v 1.111364 -0.738660 -0.420451
v 1.111364 -0.738660 0.435052
v 1.099013 -0.753709 -0.420451
v 1.099013 -0.753709 0.435052
v 1.083964 -0.766059 -0.420451
v 1.083964 -0.766059 0.435052
v 1.066795 -0.775236 -0.420451
v 1.066795 -0.775236 0.435052
v 1.048165 -0.780888 -0.420451
v 1.048165 -0.780888 0.435052
v 1.028790 -0.782796 -0.420451
v 1.028790 -0.782796 0.435052
v 1.009416 -0.780888 -0.420451
v 1.009416 -0.780888 0.435052
v 0.990786 -0.775236 -0.420451
v 0.990786 -0.775236 0.435052
v 0.973617 -0.766059 -0.420451
v 0.973617 -0.766059 0.435052
v 0.958568 -0.753709 -0.420451
v 0.958568 -0.753709 0.435052
v 0.946217 -0.738660 -0.420451
v 0.946217 -0.738660 0.435052
v 0.937040 -0.721490 -0.420451
v 0.937040 -0.721490 0.435052
v 0.931389 -0.702860 -0.420451
v 0.931389 -0.702860 0.435052
v 0.929480 -0.683486 -0.420451
v 0.929480 -0.683486 0.435052
v 0.931389 -0.664111 -0.420451
v 0.931389 -0.664111 0.435052
v 0.937040 -0.645482 -0.420451
v 0.937040 -0.645482 0.435052
v 0.946217 -0.628312 -0.420451
v 0.946217 -0.628312 0.435052
v 0.958568 -0.613263 -0.420451
v 0.958568 -0.613263 0.435052
v 0.973617 -0.600913 -0.420451
v 0.973617 -0.600913 0.435052
v 0.990786 -0.591735 -0.420451
v 0.990786 -0.591735 0.435052
v 1.009416 -0.586084 -0.420451
v 1.009416 -0.586084 0.435052
vn 0.0980 0.9952 -0.0000
vn 0.2903 0.9569 -0.0000
vn 0.4714 0.8819 -0.0000
vn 0.6344 0.7730 -0.0000
vn 0.7730 0.6344 -0.0000
vn 0.8819 0.4714 -0.0000
vn 0.9569 0.2903 -0.0000
vn 0.9952 0.0980 -0.0000
vn 0.9952 -0.0980 -0.0000
vn 0.9569 -0.2903 -0.0000
vn 0.8819 -0.4714 -0.0000
vn 0.7730 -0.6344 -0.0000
vn 0.6344 -0.7730 -0.0000
vn 0.4714 -0.8819 -0.0000
vn 0.2903 -0.9569 -0.0000
vn 0.0980 -0.9952 -0.0000
vn -0.0980 -0.9952 -0.0000
vn -0.2903 -0.9569 -0.0000
vn -0.4714 -0.8819 -0.0000
vn -0.6344 -0.7730 -0.0000
vn -0.7730 -0.6344 -0.0000
vn -0.8819 -0.4714 -0.0000
vn -0.9569 -0.2903 -0.0000
vn -0.9952 -0.0980 -0.0000
vn -0.9952 0.0980 -0.0000
vn -0.9569 0.2903 -0.0000
vn -0.8819 0.4714 -0.0000
vn -0.7730 0.6344 -0.0000
vn -0.6344 0.7730 -0.0000
vn -0.4714 0.8819 -0.0000
vn -0.0000 -0.0000 1.0000
vn -0.2903 0.9569 -0.0000
vn -0.0980 0.9952 -0.0000
vn -0.0000 -0.0000 -1.0000
vt 1.000000 0.500000
vt 1.000000 1.000000
vt 0.968750 1.000000
vt 0.968750 0.500000
vt 0.937500 1.000000
vt 0.937500 0.500000
vt 0.906250 1.000000
vt 0.906250 0.500000
vt 0.875000 1.000000
vt 0.875000 0.500000
vt 0.843750 1.000000
vt 0.843750 0.500000
vt 0.812500 1.000000
vt 0.812500 0.500000
vt 0.781250 1.000000
vt 0.781250 0.500000
vt 0.750000 1.000000
vt 0.750000 0.500000
vt 0.718750 1.000000
vt 0.718750 0.500000
vt 0.687500 1.000000
vt 0.687500 0.500000
vt 0.656250 1.000000
vt 0.656250 0.500000
vt 0.625000 1.000000
vt 0.625000 0.500000
vt 0.593750 1.000000
vt 0.593750 0.500000
vt 0.562500 1.000000
vt 0.562500 0.500000
vt 0.531250 1.000000
vt 0.531250 0.500000
vt 0.500000 1.000000
vt 0.500000 0.500000
vt 0.468750 1.000000
vt 0.468750 0.500000
vt 0.437500 1.000000
vt 0.437500 0.500000
vt 0.406250 1.000000
vt 0.406250 0.500000
vt 0.375000 1.000000
vt 0.375000 0.500000
vt 0.343750 1.000000
vt 0.343750 0.500000
vt 0.312500 1.000000
vt 0.312500 0.500000
vt 0.281250 1.000000
vt 0.281250 0.500000
vt 0.250000 1.000000
vt 0.250000 0.500000
vt 0.218750 1.000000
vt 0.218750 0.500000
vt 0.187500 1.000000
vt 0.187500 0.500000
vt 0.156250 1.000000
vt 0.156250 0.500000
vt 0.125000 1.000000
vt 0.125000 0.500000
vt 0.093750 1.000000
vt 0.093750 0.500000
vt 0.062500 1.000000
vt 0.062500 0.500000
vt 0.296822 0.485388
vt 0.250000 0.490000
vt 0.203178 0.485388
vt 0.158156 0.471731
vt 0.116663 0.449553
vt 0.080294 0.419706
vt 0.050447 0.383337
vt 0.028269 0.341844
vt 0.014612 0.296822
vt 0.010000 0.250000
vt 0.014612 0.203178
vt 0.028269 0.158156
vt 0.050447 0.116663
vt 0.080294 0.080294
vt 0.116663 0.050447
vt 0.158156 0.028269
vt 0.203178 0.014612
vt 0.250000 0.010000
vt 0.296822 0.014612
vt 0.341844 0.028269
vt 0.383337 0.050447
vt 0.419706 0.080294
vt 0.449553 0.116663
vt 0.471731 0.158156
vt 0.485388 0.203178
vt 0.490000 0.250000
vt 0.485388 0.296822
vt 0.471731 0.341844
vt 0.449553 0.383337
vt 0.419706 0.419706
vt 0.383337 0.449553
vt 0.341844 0.471731
vt 0.031250 1.000000
vt 0.031250 0.500000
vt 0.000000 1.000000
vt 0.000000 0.500000
vt 0.750000 0.490000
vt 0.796822 0.485388
vt 0.841844 0.471731
vt 0.883337 0.449553
vt 0.919706 0.419706
vt 0.949553 0.383337
vt 0.971731 0.341844
vt 0.985388 0.296822
vt 0.990000 0.250000
vt 0.985388 0.203178
vt 0.971731 0.158156
vt 0.949553 0.116663
vt 0.919706 0.080294
vt 0.883337 0.050447
vt 0.841844 0.028269
vt 0.796822 0.014612
vt 0.750000 0.010000
vt 0.703178 0.014612
vt 0.658156 0.028269
vt 0.616663 0.050447
vt 0.580294 0.080294
vt 0.550447 0.116663
vt 0.528269 0.158156
vt 0.514612 0.203178
vt 0.510000 0.250000
vt 0.514612 0.296822
vt 0.528269 0.341844
vt 0.550447 0.383337
vt 0.580294 0.419706
vt 0.616663 0.449553
vt 0.658156 0.471731
vt 0.703178 0.485388
s 0
usemtl Holes
f 195/284/100 196/285/100 198/286/100 197/287/100
f 197/287/101 198/286/101 200/288/101 199/289/101
f 199/289/102 200/288/102 202/290/102 201/291/102
f 201/291/103 202/290/103 204/292/103 203/293/103
f 203/293/104 204/292/104 206/294/104 205/295/104
f 205/295/105 206/294/105 208/296/105 207/297/105
f 207/297/106 208/296/106 210/298/106 209/299/106
f 209/299/107 210/298/107 212/300/107 211/301/107
f 211/301/108 212/300/108 214/302/108 213/303/108
f 213/303/109 214/302/109 216/304/109 215/305/109
f 215/305/110 216/304/110 218/306/110 217/307/110
f 217/307/111 218/306/111 220/308/111 219/309/111
f 219/309/112 220/308/112 222/310/112 221/311/112
f 221/311/113 222/310/113 224/312/113 223/313/113
f 223/313/114 224/312/114 226/314/114 225/315/114
f 225/315/115 226/314/115 228/316/115 227/317/115
f 227/317/116 228/316/116 230/318/116 229/319/116
f 229/319/117 230/318/117 232/320/117 231/321/117
f 231/321/118 232/320/118 234/322/118 233/323/118
f 233/323/119 234/322/119 236/324/119 235/325/119
f 235/325/120 236/324/120 238/326/120 237/327/120
f 237/327/121 238/326/121 240/328/121 239/329/121
f 239/329/122 240/328/122 242/330/122 241/331/122
f 241/331/123 242/330/123 244/332/123 243/333/123
f 243/333/124 244/332/124 246/334/124 245/335/124
f 245/335/125 246/334/125 248/336/125 247/337/125
f 247/337/126 248/336/126 250/338/126 249/339/126
f 249/339/127 250/338/127 252/340/127 251/341/127
f 251/341/128 252/340/128 254/342/128 253/343/128
f 253/343/129 254/342/129 256/344/129 255/345/129
f 198/346/130 196/347/130 258/348/130 256/349/130 254/350/130 252/351/130 250/352/130 248/353/130 246/354/130 244/355/130 242/356/130 240/357/130 238/358/130 236/359/130 234/360/130 232/361/130 230/362/130 228/363/130 226/364/130 224/365/130 222/366/130 220/367/130 218/368/130 216/369/130 214/370/130 212/371/130 210/372/130 208/373/130 206/374/130 204/375/130 202/376/130 200/377/130
f 255/345/131 256/344/131 258/378/131 257/379/131
f 257/379/132 258/378/132 196/380/132 195/381/132
f 195/382/133 197/383/133 199/384/133 201/385/133 203/386/133 205/387/133 207/388/133 209/389/133 211/390/133 213/391/133 215/392/133 217/393/133 219/394/133 221/395/133 223/396/133 225/397/133 227/398/133 229/399/133 231/400/133 233/401/133 235/402/133 237/403/133 239/404/133 241/405/133 243/406/133 245/407/133 247/408/133 249/409/133 251/410/133 253/411/133 255/412/133 257/413/133
o Cylinder.003
v -1.579015 -0.567205 -0.362994
v -1.579015 -0.567205 0.377595
v -1.556329 -0.569439 -0.362994
v -1.556329 -0.569439 0.377595
v -1.534516 -0.576056 -0.362994
v -1.534516 -0.576056 0.377595
v -1.514412 -0.586802 -0.362994
v -1.514412 -0.586802 0.377595
v -1.496791 -0.601263 -0.362994
v -1.496791 -0.601263 0.377595
v -1.482331 -0.618884 -0.362994
v -1.482331 -0.618884 0.377595
v -1.471585 -0.638987 -0.362994
v -1.471585 -0.638987 0.377595
v -1.464968 -0.660801 -0.362994
v -1.464968 -0.660801 0.377595
v -1.462734 -0.683486 -0.362994
v -1.462734 -0.683486 0.377595
v -1.464968 -0.706171 -0.362994
v -1.464968 -0.706171 0.377595
v -1.471585 -0.727985 -0.362994
v -1.471585 -0.727985 0.377595
v -1.482331 -0.748088 -0.362994
v -1.482331 -0.748088 0.377595
v -1.496791 -0.765709 -0.362994
v -1.496791 -0.765709 0.377595
v -1.514412 -0.780170 -0.362994
v -1.514412 -0.780170 0.377595
v -1.534516 -0.790915 -0.362994
v -1.534516 -0.790915 0.377595
v -1.556329 -0.797532 -0.362994
v -1.556329 -0.797532 0.377595
v -1.579015 -0.799767 -0.362994
v -1.579015 -0.799767 0.377595
v -1.601700 -0.797532 -0.362994
v -1.601700 -0.797532 0.377595
v -1.623513 -0.790915 -0.362994
v -1.623513 -0.790915 0.377595
v -1.643617 -0.780170 -0.362994
v -1.643617 -0.780170 0.377595
v -1.661238 -0.765709 -0.362994
v -1.661238 -0.765709 0.377595
v -1.675699 -0.748088 -0.362994
v -1.675699 -0.748088 0.377595
v -1.686444 -0.727985 -0.362994
v -1.686444 -0.727985 0.377595
v -1.693061 -0.706171 -0.362994
v -1.693061 -0.706171 0.377595
v -1.695295 -0.683486 -0.362994
v -1.695295 -0.683486 0.377595
v -1.693061 -0.660801 -0.362994
v -1.693061 -0.660801 0.377595
v -1.686444 -0.638987 -0.362994
v -1.686444 -0.638987 0.377595
v -1.675699 -0.618884 -0.362994
v -1.675699 -0.618884 0.377595
v -1.661238 -0.601263 -0.362994
v -1.661238 -0.601263 0.377595
v -1.643617 -0.586802 -0.362994
v -1.643617 -0.586802 0.377595
v -1.623513 -0.576056 -0.362994
v -1.623513 -0.576056 0.377595
v -1.601700 -0.569439 -0.362994
v -1.601700 -0.569439 0.377595
vn 0.0980 0.9952 -0.0000
vn 0.2903 0.9569 -0.0000
vn 0.4714 0.8819 -0.0000
vn 0.6344 0.7730 -0.0000
vn 0.7730 0.6344 -0.0000
vn 0.8819 0.4714 -0.0000
vn 0.9569 0.2903 -0.0000
vn 0.9952 0.0980 -0.0000
vn 0.9952 -0.0980 -0.0000
vn 0.9569 -0.2903 -0.0000
vn 0.8819 -0.4714 -0.0000
vn 0.7730 -0.6344 -0.0000
vn 0.6344 -0.7730 -0.0000
vn 0.4714 -0.8819 -0.0000
vn 0.2903 -0.9569 -0.0000
vn 0.0980 -0.9952 -0.0000
vn -0.0980 -0.9952 -0.0000
vn -0.2903 -0.9569 -0.0000
vn -0.4714 -0.8819 -0.0000
vn -0.6344 -0.7730 -0.0000
vn -0.7730 -0.6344 -0.0000
vn -0.8819 -0.4714 -0.0000
vn -0.9569 -0.2903 -0.0000
vn -0.9952 -0.0980 -0.0000
vn -0.9952 0.0980 -0.0000
vn -0.9569 0.2903 -0.0000
vn -0.8819 0.4714 -0.0000
vn -0.7730 0.6344 -0.0000
vn -0.6344 0.7730 -0.0000
vn -0.4714 0.8819 -0.0000
vn -0.0000 -0.0000 1.0000
vn -0.2903 0.9569 -0.0000
vn -0.0980 0.9952 -0.0000
vn -0.0000 -0.0000 -1.0000
vt 1.000000 0.500000
vt 1.000000 1.000000
vt 0.968750 1.000000
vt 0.968750 0.500000
vt 0.937500 1.000000
vt 0.937500 0.500000
vt 0.906250 1.000000
vt 0.906250 0.500000
vt 0.875000 1.000000
vt 0.875000 0.500000
vt 0.843750 1.000000
vt 0.843750 0.500000
vt 0.812500 1.000000
vt 0.812500 0.500000
vt 0.781250 1.000000
vt 0.781250 0.500000
vt 0.750000 1.000000
vt 0.750000 0.500000
vt 0.718750 1.000000
vt 0.718750 0.500000
vt 0.687500 1.000000
vt 0.687500 0.500000
vt 0.656250 1.000000
vt 0.656250 0.500000
vt 0.625000 1.000000
vt 0.625000 0.500000
vt 0.593750 1.000000
vt 0.593750 0.500000
vt 0.562500 1.000000
vt 0.562500 0.500000
vt 0.531250 1.000000
vt 0.531250 0.500000
vt 0.500000 1.000000
vt 0.500000 0.500000
vt 0.468750 1.000000
vt 0.468750 0.500000
vt 0.437500 1.000000
vt 0.437500 0.500000
vt 0.406250 1.000000
vt 0.406250 0.500000
vt 0.375000 1.000000
vt 0.375000 0.500000
vt 0.343750 1.000000
vt 0.343750 0.500000
vt 0.312500 1.000000
vt 0.312500 0.500000
vt 0.281250 1.000000
vt 0.281250 0.500000
vt 0.250000 1.000000
vt 0.250000 0.500000
vt 0.218750 1.000000
vt 0.218750 0.500000
vt 0.187500 1.000000
vt 0.187500 0.500000
vt 0.156250 1.000000
vt 0.156250 0.500000
vt 0.125000 1.000000
vt 0.125000 0.500000
vt 0.093750 1.000000
vt 0.093750 0.500000
vt 0.062500 1.000000
vt 0.062500 0.500000
vt 0.296822 0.485388
vt 0.250000 0.490000
vt 0.203178 0.485388
vt 0.158156 0.471731
vt 0.116663 0.449553
vt 0.080294 0.419706
vt 0.050447 0.383337
vt 0.028269 0.341844
vt 0.014612 0.296822
vt 0.010000 0.250000
vt 0.014612 0.203178
vt 0.028269 0.158156
vt 0.050447 0.116663
vt 0.080294 0.080294
vt 0.116663 0.050447
vt 0.158156 0.028269
vt 0.203178 0.014612
vt 0.250000 0.010000
vt 0.296822 0.014612
vt 0.341844 0.028269
vt 0.383337 0.050447
vt 0.419706 0.080294
vt 0.449553 0.116663
vt 0.471731 0.158156
vt 0.485388 0.203178
vt 0.490000 0.250000
vt 0.485388 0.296822
vt 0.471731 0.341844
vt 0.449553 0.383337
vt 0.419706 0.419706
vt 0.383337 0.449553
vt 0.341844 0.471731
vt 0.031250 1.000000
vt 0.031250 0.500000
vt 0.000000 1.000000
vt 0.000000 0.500000
vt 0.750000 0.490000
vt 0.796822 0.485388
vt 0.841844 0.471731
vt 0.883337 0.449553
vt 0.919706 0.419706
vt 0.949553 0.383337
vt 0.971731 0.341844
vt 0.985388 0.296822
vt 0.990000 0.250000
vt 0.985388 0.203178
vt 0.971731 0.158156
vt 0.949553 0.116663
vt 0.919706 0.080294
vt 0.883337 0.050447
vt 0.841844 0.028269
vt 0.796822 0.014612
vt 0.750000 0.010000
vt 0.703178 0.014612
vt 0.658156 0.028269
vt 0.616663 0.050447
vt 0.580294 0.080294
vt 0.550447 0.116663
vt 0.528269 0.158156
vt 0.514612 0.203178
vt 0.510000 0.250000
vt 0.514612 0.296822
vt 0.528269 0.341844
vt 0.550447 0.383337
vt 0.580294 0.419706
vt 0.616663 0.449553
vt 0.658156 0.471731
vt 0.703178 0.485388
s 0
usemtl Holes
f 259/414/134 260/415/134 262/416/134 261/417/134
f 261/417/135 262/416/135 264/418/135 263/419/135
f 263/419/136 264/418/136 266/420/136 265/421/136
f 265/421/137 266/420/137 268/422/137 267/423/137
f 267/423/138 268/422/138 270/424/138 269/425/138
f 269/425/139 270/424/139 272/426/139 271/427/139
f 271/427/140 272/426/140 274/428/140 273/429/140
f 273/429/141 274/428/141 276/430/141 275/431/141
f 275/431/142 276/430/142 278/432/142 277/433/142
f 277/433/143 278/432/143 280/434/143 279/435/143
f 279/435/144 280/434/144 282/436/144 281/437/144
f 281/437/145 282/436/145 284/438/145 283/439/145
f 283/439/146 284/438/146 286/440/146 285/441/146
f 285/441/147 286/440/147 288/442/147 287/443/147
f 287/443/148 288/442/148 290/444/148 289/445/148
f 289/445/149 290/444/149 292/446/149 291/447/149
f 291/447/150 292/446/150 294/448/150 293/449/150
f 293/449/151 294/448/151 296/450/151 295/451/151
f 295/451/152 296/450/152 298/452/152 297/453/152
f 297/453/153 298/452/153 300/454/153 299/455/153
f 299/455/154 300/454/154 302/456/154 301/457/154
f 301/457/155 302/456/155 304/458/155 303/459/155
f 303/459/156 304/458/156 306/460/156 305/461/156
f 305/461/157 306/460/157 308/462/157 307/463/157
f 307/463/158 308/462/158 310/464/158 309/465/158
f 309/465/159 310/464/159 312/466/159 311/467/159
f 311/467/160 312/466/160 314/468/160 313/469/160
f 313/469/161 314/468/161 316/470/161 315/471/161
f 315/471/162 316/470/162 318/472/162 317/473/162
f 317/473/163 318/472/163 320/474/163 319/475/163
f 262/476/164 260/477/164 322/478/164 320/479/164 318/480/164 316/481/164 314/482/164 312/483/164 310/484/164 308/485/164 306/486/164 304/487/164 302/488/164 300/489/164 298/490/164 296/491/164 294/492/164 292/493/164 290/494/164 288/495/164 286/496/164 284/497/164 282/498/164 280/499/164 278/500/164 276/501/164 274/502/164 272/503/164 270/504/164 268/505/164 266/506/164 264/507/164
f 319/475/165 320/474/165 322/508/165 321/509/165
f 321/509/166 322/508/166 260/510/166 259/511/166
f 259/512/167 261/513/167 263/514/167 265/515/167 267/516/167 269/517/167 271/518/167 273/519/167 275/520/167 277/521/167 279/522/167 281/523/167 283/524/167 285/525/167 287/526/167 289/527/167 291/528/167 293/529/167 295/530/167 297/531/167 299/532/167 301/533/167 303/534/167 305/535/167 307/536/167 309/537/167 311/538/167 313/539/167 315/540/167 317/541/167 319/542/167 321/543/167
